<svg width="15" height="9" viewBox="0 0 15 9" fill="none" xmlns="http://www.w3.org/2000/svg">
<path id="Vector" d="M10.5682 5.14286C9.75 5.14286 8.475 5.36143 7.5 5.78571C6.525 5.355 5.25 5.14286 4.43182 5.14286C2.95227 5.14286 0 5.83714 0 7.23214V9H15V7.23214C15 5.83714 12.0477 5.14286 10.5682 5.14286ZM7.84091 8.03571H1.02273V7.23214C1.02273 6.885 2.76818 6.10714 4.43182 6.10714C6.09545 6.10714 7.84091 6.885 7.84091 7.23214V8.03571ZM13.9773 8.03571H8.86364V7.23214C8.86364 6.93643 8.72727 6.67929 8.50909 6.44786C9.10909 6.255 9.84546 6.10714 10.5682 6.10714C12.2318 6.10714 13.9773 6.885 13.9773 7.23214V8.03571ZM4.43182 4.5C5.74773 4.5 6.81818 3.49071 6.81818 2.25C6.81818 1.00929 5.74773 0 4.43182 0C3.11591 0 2.04545 1.00929 2.04545 2.25C2.04545 3.49071 3.11591 4.5 4.43182 4.5ZM4.43182 0.964286C5.18182 0.964286 5.79545 1.54286 5.79545 2.25C5.79545 2.95714 5.18182 3.53571 4.43182 3.53571C3.68182 3.53571 3.06818 2.95714 3.06818 2.25C3.06818 1.54286 3.68182 0.964286 4.43182 0.964286ZM10.5682 4.5C11.8841 4.5 12.9545 3.49071 12.9545 2.25C12.9545 1.00929 11.8841 0 10.5682 0C9.25227 0 8.18182 1.00929 8.18182 2.25C8.18182 3.49071 9.25227 4.5 10.5682 4.5ZM10.5682 0.964286C11.3182 0.964286 11.9318 1.54286 11.9318 2.25C11.9318 2.95714 11.3182 3.53571 10.5682 3.53571C9.81818 3.53571 9.20455 2.95714 9.20455 2.25C9.20455 1.54286 9.81818 0.964286 10.5682 0.964286Z" fill="#9C9C9C"/>
</svg>
