<svg width="50" height="43" viewBox="0 0 50 43" fill="none" xmlns="http://www.w3.org/2000/svg">
<g filter="url(#filter0_d_323_316)">
<path fill-rule="evenodd" clip-rule="evenodd" d="M21.405 1.22863V30.4112H4V29.4112H8.99448V19.0146H12.8205V15.1428H16.5769V11.2547L20.4029 5.80545V0.377608L20.8211 0.307627C24.0233 -0.228257 28.8576 -0.2167 32.9456 1.59869C34.9976 2.50992 36.8724 3.88099 38.2474 5.87465C39.6205 7.86571 40.4739 10.4474 40.5345 13.7476C40.8306 16.5604 39.9497 20.6958 37.6711 24.1371C36.3495 26.1331 34.5482 27.9079 32.2233 29.056L36.6871 30.4056L35.1069 28.151L35.9281 27.5779L39.1681 32.2006L34.1658 30.6882L35.6821 33.0336L34.8401 33.5758L31.9905 29.1681C30.4516 29.8895 28.6895 30.3386 26.6918 30.4031V34H32.521V35H25.6897V24.5355H32.521V25.5355H26.6918V29.4025C31.452 29.2376 34.7551 26.727 36.8351 23.5858C39.0013 20.3143 39.8122 16.3964 39.5358 13.832L39.5333 13.8096L39.5329 13.7871C39.4788 10.645 38.6716 8.25364 37.4219 6.44158C36.1709 4.62765 34.4555 3.36372 32.5382 2.51231C28.8583 0.878132 24.4761 0.783588 21.405 1.22863ZM20.4029 7.54814L17.579 11.5702V29.4112H20.4029V7.54814ZM16.5769 29.4112V16.1428H13.8225V29.4112H16.5769ZM12.8205 29.4112V20.0146H9.99655V29.4112H12.8205ZM43.828 18.2573L46 19.006L45.6728 19.9512L43.5575 19.222L41.243 19.9551L40.9398 19.002L42.595 18.4777L41.1509 17.1354L41.8339 16.4036L43.828 18.2573ZM41.1403 21.3327L41.5577 20.2727L40.6251 19.9069L39.4221 22.9616L40.3547 23.3274L40.7737 22.2635L44.2517 23.6106L44.6143 22.6784L41.1403 21.3327ZM43.1359 26.4534L38.9194 24.3128L39.3738 23.4215L43.5902 25.5621L43.1359 26.4534ZM37.8636 25.3021C38.4362 25.0581 39.0706 25.0769 39.4245 25.1499L39.2217 26.1292C39.0115 26.0858 38.5947 26.0779 38.2571 26.2218C38.0975 26.2897 37.9706 26.3849 37.8819 26.5129C37.7949 26.6385 37.7217 26.8288 37.7217 27.1279V27.131C37.7217 27.2097 37.7216 27.3713 37.81 27.6006C37.9005 27.8351 38.0947 28.1677 38.5271 28.5499C38.9767 28.9472 39.6161 29.0994 40.1096 28.9739C40.3475 28.9134 40.5425 28.7917 40.6803 28.6106C40.8139 28.4349 40.9185 28.1704 40.9243 27.7781C40.8765 27.4562 40.8225 27.2589 40.7559 27.1203C40.6944 26.9924 40.6136 26.8967 40.471 26.7968L41.0468 25.9783C41.3144 26.1659 41.5157 26.389 41.6593 26.6877C41.7954 26.9706 41.868 27.2983 41.9216 27.6733L41.9266 27.7084V27.7438C41.9266 28.3334 41.7705 28.8311 41.4785 29.2151C41.1868 29.5987 40.7857 29.8339 40.357 29.943C39.5172 30.1565 38.5413 29.8982 37.8628 29.2985C37.3209 28.8197 37.028 28.3568 36.8748 27.9598C36.7208 27.5605 36.7196 27.2557 36.7196 27.1279C36.7196 26.6561 36.8386 26.2604 37.0577 25.9442C37.2751 25.6303 37.5681 25.428 37.8636 25.3021Z" fill="url(#paint0_linear_323_316)"/>
</g>
<defs>
<filter id="filter0_d_323_316" x="0" y="0" width="50" height="43" filterUnits="userSpaceOnUse" color-interpolation-filters="sRGB">
<feFlood flood-opacity="0" result="BackgroundImageFix"/>
<feColorMatrix in="SourceAlpha" type="matrix" values="0 0 0 0 0 0 0 0 0 0 0 0 0 0 0 0 0 0 127 0" result="hardAlpha"/>
<feOffset dy="4"/>
<feGaussianBlur stdDeviation="2"/>
<feComposite in2="hardAlpha" operator="out"/>
<feColorMatrix type="matrix" values="0 0 0 0 0 0 0 0 0 0 0 0 0 0 0 0 0 0 0.25 0"/>
<feBlend mode="normal" in2="BackgroundImageFix" result="effect1_dropShadow_323_316"/>
<feBlend mode="normal" in="SourceGraphic" in2="effect1_dropShadow_323_316" result="shape"/>
</filter>
<linearGradient id="paint0_linear_323_316" x1="24.9182" y1="0.499959" x2="24.9182" y2="34.5" gradientUnits="userSpaceOnUse">
<stop stop-color="#EC5A77"/>
<stop offset="1" stop-color="#9314F7"/>
</linearGradient>
</defs>
</svg>
