<svg width="77" height="66" viewBox="0 0 77 66" fill="none" xmlns="http://www.w3.org/2000/svg">
<g id="Vector (Stroke)" filter="url(#filter0_d_324_156)">
<path fill-rule="evenodd" clip-rule="evenodd" d="M32.5939 2.03602V50.3956H4V48.7385H12.2052V31.5099H18.4908V25.0937H24.6621V18.6506L30.9476 9.62046V0.62575L31.6346 0.509782C36.8954 -0.378254 44.8376 -0.359103 51.5535 2.64926C54.9246 4.15929 58.0047 6.43135 60.2635 9.73514C62.5193 13.0346 63.9215 17.3129 64.0209 22.7818C64.5074 27.4429 63.0603 34.2959 59.3169 39.9986C57.1456 43.3062 54.1863 46.2473 50.3669 48.15L57.7003 50.3864L55.1042 46.6503L56.4532 45.7005L61.7762 53.361L53.558 50.8547L56.0492 54.7414L54.6658 55.6398L49.9844 48.3357C47.4562 49.5311 44.5613 50.2755 41.2794 50.3823V56.3429H50.856V58H39.6331V40.6589H50.856V42.316H41.2794V48.7242C49.0997 48.4509 54.5263 44.2905 57.9434 39.085C61.5021 33.6637 62.8343 27.1712 62.3802 22.9216L62.3762 22.8846L62.3756 22.8473C62.2865 17.6402 60.9604 13.6775 58.9074 10.6746C56.8522 7.66867 54.034 5.57417 50.8842 4.16326C44.8386 1.45519 37.6392 1.29852 32.5939 2.03602ZM30.9476 12.5083L26.3083 19.1734V48.7385H30.9476V12.5083ZM24.6621 48.7385V26.7509H20.137V48.7385H24.6621ZM18.4908 48.7385V33.167H13.8515V48.7385H18.4908ZM69.4317 30.2549L73 31.4956L72.4625 33.0619L68.9873 31.8536L65.1849 33.0685L64.6868 31.489L67.406 30.6202L65.0336 28.3958L66.1557 27.1832L69.4317 30.2549ZM65.0161 35.3514L65.7019 33.5948L64.1698 32.9886L62.1935 38.0507L63.7256 38.6568L64.414 36.8937L70.1277 39.1262L70.7234 37.5813L65.0161 35.3514ZM68.2947 43.837L61.3676 40.2898L62.114 38.8127L69.0411 42.36L68.2947 43.837ZM59.6331 41.9291C60.5737 41.5249 61.6161 41.556 62.1974 41.677L61.8642 43.2998C61.5188 43.228 60.8342 43.2148 60.2795 43.4532C60.0173 43.5658 59.8088 43.7236 59.6632 43.9356C59.5202 44.1438 59.3999 44.4591 59.3999 44.9548V44.96C59.3999 45.0904 59.3998 45.3582 59.545 45.7381C59.6936 46.1267 60.0127 46.6779 60.7231 47.3112C61.4618 47.9697 62.5122 48.2219 63.3229 48.014C63.7138 47.9137 64.0342 47.712 64.2605 47.4118C64.48 47.1207 64.6518 46.6823 64.6613 46.0323C64.5829 45.4988 64.4941 45.1719 64.3847 44.9422C64.2836 44.7302 64.1509 44.5717 63.9167 44.4061L64.8626 43.0498C65.3023 43.3606 65.633 43.7304 65.8689 44.2254C66.0924 44.6942 66.2118 45.2371 66.2997 45.8586L66.308 45.9167V45.9754C66.308 46.9525 66.0516 47.7773 65.5719 48.4136C65.0926 49.0493 64.4337 49.4391 63.7294 49.6198C62.3497 49.9737 60.7464 49.5455 59.6317 48.5519C58.7415 47.7584 58.2602 46.9913 58.0086 46.3333C57.7557 45.6717 57.7536 45.1666 57.7536 44.9548C57.7536 44.1729 57.9492 43.5172 58.3091 42.9932C58.6663 42.4731 59.1475 42.1378 59.6331 41.9291Z" fill="url(#paint0_linear_324_156)"/>
</g>
<defs>
<filter id="filter0_d_324_156" x="0" y="0" width="77" height="66" filterUnits="userSpaceOnUse" color-interpolation-filters="sRGB">
<feFlood flood-opacity="0" result="BackgroundImageFix"/>
<feColorMatrix in="SourceAlpha" type="matrix" values="0 0 0 0 0 0 0 0 0 0 0 0 0 0 0 0 0 0 127 0" result="hardAlpha"/>
<feOffset dy="4"/>
<feGaussianBlur stdDeviation="2"/>
<feComposite in2="hardAlpha" operator="out"/>
<feColorMatrix type="matrix" values="0 0 0 0 0 0 0 0 0 0 0 0 0 0 0 0 0 0 0.25 0"/>
<feBlend mode="normal" in2="BackgroundImageFix" result="effect1_dropShadow_324_156"/>
<feBlend mode="normal" in="SourceGraphic" in2="effect1_dropShadow_324_156" result="shape"/>
</filter>
<linearGradient id="paint0_linear_324_156" x1="38.3656" y1="0.828503" x2="38.3656" y2="57.1714" gradientUnits="userSpaceOnUse">
<stop stop-color="#FA7F98"/>
<stop offset="0.333946" stop-color="#F1ACAC"/>
<stop offset="0.9999" stop-color="#FB617F"/>
</linearGradient>
</defs>
</svg>
