<svg width="16" height="10" viewBox="0 0 16 10" fill="none" xmlns="http://www.w3.org/2000/svg">
<path id="Vector" d="M12.9 3.775C12.4467 1.61875 10.4267 0 8 0C6.07333 0 4.4 1.025 3.56667 2.525C1.56 2.725 0 4.31875 0 6.25C0 8.31875 1.79333 10 4 10H12.6667C14.5067 10 16 8.6 16 6.875C16 5.225 14.6333 3.8875 12.9 3.775ZM12.6667 8.75H4C2.52667 8.75 1.33333 7.63125 1.33333 6.25C1.33333 4.86875 2.52667 3.75 4 3.75H4.47333C4.91333 2.30625 6.32 1.25 8 1.25C10.0267 1.25 11.6667 2.7875 11.6667 4.6875V5H12.6667C13.7733 5 14.6667 5.8375 14.6667 6.875C14.6667 7.9125 13.7733 8.75 12.6667 8.75Z" fill="#9C9C9C"/>
</svg>
