<svg width="65" height="49" viewBox="0 0 65 49" fill="none" xmlns="http://www.w3.org/2000/svg">
<g id="Group" filter="url(#filter0_d_204_247)">
<g id="Group_2">
<path id="Vector" d="M29.3889 18.5965C30.0191 14.7484 27.4069 11.1186 23.5546 10.4892C19.7022 9.8597 16.0684 12.4689 15.4382 16.317C14.8081 20.1652 17.4202 23.7949 21.2726 24.4244C25.1249 25.0539 28.7587 22.4446 29.3889 18.5965Z" fill="#F4B43E"/>
<g id="Group_3">
<path id="Vector_2" d="M22.4183 7.71416C21.9511 7.71416 21.5708 7.33428 21.5708 6.86758V0.846576C21.5708 0.379874 21.9511 0 22.4183 0C22.8855 0 23.2658 0.379874 23.2658 0.846576V6.86758C23.2658 7.33428 22.8855 7.71416 22.4183 7.71416Z" fill="#F4B43E"/>
<path id="Vector_3" d="M22.4183 34.9186C21.9511 34.9186 21.5708 34.5387 21.5708 34.072V28.051C21.5708 27.5843 21.9511 27.2044 22.4183 27.2044C22.8855 27.2044 23.2658 27.5843 23.2658 28.051V34.072C23.2658 34.5387 22.8855 34.9186 22.4183 34.9186Z" fill="#F4B43E"/>
</g>
<g id="Group_4">
<path id="Vector_4" d="M29.3152 10.5686C28.9838 10.2376 28.9838 9.70307 29.3152 9.37203L33.5772 5.11473C33.9086 4.7837 34.4437 4.7837 34.7751 5.11473C35.1065 5.44576 35.1065 5.9803 34.7751 6.31133L30.5131 10.5686C30.1817 10.8997 29.6466 10.8997 29.3152 10.5686Z" fill="#F4B43E"/>
<path id="Vector_5" d="M10.0589 29.8038C9.72745 29.4728 9.72745 28.9383 10.0589 28.6072L14.3209 24.3499C14.6523 24.0189 15.1874 24.0189 15.5188 24.3499C15.8502 24.681 15.8502 25.2155 15.5188 25.5465L11.2568 29.8038C10.9254 30.1349 10.3903 30.1349 10.0589 29.8038Z" fill="#F4B43E"/>
</g>
<g id="Group_5">
<path id="Vector_6" d="M32.173 17.4579C32.173 16.9912 32.5533 16.6114 33.0205 16.6114H39.0481C39.5154 16.6114 39.8957 16.9912 39.8957 17.4579C39.8957 17.9246 39.5154 18.3045 39.0481 18.3045H33.0205C32.5533 18.3045 32.173 17.9246 32.173 17.4579Z" fill="#F4B43E"/>
<path id="Vector_7" d="M4.94116 17.4579C4.94116 16.9912 5.32145 16.6114 5.78867 16.6114H11.8163C12.2836 16.6114 12.6638 16.9912 12.6638 17.4579C12.6638 17.9246 12.2836 18.3045 11.8163 18.3045H5.78867C5.32145 18.3045 4.94116 17.9246 4.94116 17.4579Z" fill="#F4B43E"/>
</g>
<g id="Group_6">
<path id="Vector_8" d="M29.3152 24.3499C29.6466 24.0189 30.1817 24.0189 30.5131 24.3499L34.7751 28.6072C35.1065 28.9383 35.1065 29.4728 34.7751 29.8038C34.4437 30.1349 33.9086 30.1349 33.5772 29.8038L29.3152 25.5465C28.9838 25.2155 28.9838 24.681 29.3152 24.3499Z" fill="#F4B43E"/>
<path id="Vector_9" d="M10.0589 5.11473C10.3903 4.7837 10.9254 4.7837 11.2568 5.11473L15.5188 9.37203C15.8502 9.70307 15.8502 10.2376 15.5188 10.5686C15.1874 10.8997 14.6523 10.8997 14.3209 10.5686L10.0589 6.31133C9.72745 5.9803 9.72745 5.44576 10.0589 5.11473Z" fill="#F4B43E"/>
</g>
</g>
<path id="Vector_10" d="M54.8086 29.8011C54.7869 29.8011 54.7652 29.8065 54.7434 29.8065C55.1617 28.8379 55.3981 27.7715 55.3981 26.6509C55.3981 22.2525 51.8287 18.6871 47.4255 18.6871C45.869 18.6871 44.4212 19.1402 43.1961 19.9081C41.5364 15.8787 37.5704 13.0405 32.939 13.0405C26.8135 13.0405 21.848 18.0006 21.848 24.1193C21.848 24.5806 21.886 25.0337 21.9403 25.4814C21.9105 25.4814 21.8779 25.476 21.848 25.476C17.7408 25.476 14.4105 28.8026 14.4105 32.9052C14.4105 37.0079 17.7408 40.3345 21.848 40.3345H54.8113C57.7233 40.3345 60.0866 37.9765 60.0866 35.0678C60.0866 32.159 57.726 29.7984 54.8113 29.7984L54.8086 29.8011Z" fill="#C9C9C9"/>
</g>
<defs>
<filter id="filter0_d_204_247" x="0.941162" y="0" width="63.1454" height="48.3345" filterUnits="userSpaceOnUse" color-interpolation-filters="sRGB">
<feFlood flood-opacity="0" result="BackgroundImageFix"/>
<feColorMatrix in="SourceAlpha" type="matrix" values="0 0 0 0 0 0 0 0 0 0 0 0 0 0 0 0 0 0 127 0" result="hardAlpha"/>
<feOffset dy="4"/>
<feGaussianBlur stdDeviation="2"/>
<feComposite in2="hardAlpha" operator="out"/>
<feColorMatrix type="matrix" values="0 0 0 0 0 0 0 0 0 0 0 0 0 0 0 0 0 0 0.25 0"/>
<feBlend mode="normal" in2="BackgroundImageFix" result="effect1_dropShadow_204_247"/>
<feBlend mode="normal" in="SourceGraphic" in2="effect1_dropShadow_204_247" result="shape"/>
</filter>
</defs>
</svg>
