<svg width="50" height="50" viewBox="0 0 50 50" fill="none" xmlns="http://www.w3.org/2000/svg">
<g id="Group" filter="url(#filter0_d_204_230)">
<path id="Vector" d="M28.5944 28.1362C32.7082 26.0776 34.3723 21.0775 32.3114 16.9682C30.2505 12.859 25.2449 11.1967 21.1311 13.2553C17.0173 15.314 15.3531 20.3141 17.414 24.4233C19.475 28.5326 24.4806 30.1949 28.5944 28.1362Z" fill="#F4B43E"/>
<g id="Group_2">
<path id="Vector_2" d="M24.8613 9.20852C24.3099 9.20852 23.8617 8.76082 23.8617 8.21V1.11449C23.8617 0.563675 24.3099 0.115967 24.8613 0.115967C25.4127 0.115967 25.861 0.563675 25.861 1.11449V8.21C25.861 8.76082 25.4127 9.20852 24.8613 9.20852Z" fill="#F4B43E"/>
<path id="Vector_3" d="M24.8613 41.2645C24.3099 41.2645 23.8617 40.8168 23.8617 40.2659V33.1704C23.8617 32.6196 24.3099 32.1719 24.8613 32.1719C25.4127 32.1719 25.861 32.6196 25.861 33.1704V40.2659C25.861 40.8168 25.4127 41.2645 24.8613 41.2645Z" fill="#F4B43E"/>
</g>
<g id="Group_3">
<path id="Vector_4" d="M32.9889 12.5704C32.5978 12.1797 32.5978 11.5502 32.9889 11.1595L38.0115 6.14241C38.4027 5.75168 39.0329 5.75168 39.424 6.14241C39.8152 6.53314 39.8152 7.16264 39.424 7.55337L34.4015 12.5704C34.0103 12.9612 33.3801 12.9612 32.9889 12.5704Z" fill="#F4B43E"/>
<path id="Vector_5" d="M10.2989 35.2381C9.9077 34.8473 9.9077 34.2178 10.2989 33.8271L15.3215 28.81C15.7126 28.4193 16.3428 28.4193 16.734 28.81C17.1251 29.2008 17.1251 29.8303 16.734 30.221L11.7114 35.2381C11.3202 35.6288 10.69 35.6288 10.2989 35.2381Z" fill="#F4B43E"/>
</g>
<g id="Group_4">
<path id="Vector_6" d="M36.3571 20.6889C36.3571 20.138 36.8053 19.6903 37.3567 19.6903H44.46C45.0114 19.6903 45.4597 20.138 45.4597 20.6889C45.4597 21.2397 45.0114 21.6874 44.46 21.6874H37.3567C36.8053 21.6874 36.3571 21.2397 36.3571 20.6889Z" fill="#F4B43E"/>
<path id="Vector_7" d="M4.26575 20.6889C4.26575 20.138 4.71395 19.6903 5.26538 19.6903H12.3687C12.9202 19.6903 13.3684 20.138 13.3684 20.6889C13.3684 21.2397 12.9202 21.6874 12.3687 21.6874H5.26538C4.71395 21.6874 4.26575 21.2397 4.26575 20.6889Z" fill="#F4B43E"/>
</g>
<g id="Group_5">
<path id="Vector_8" d="M32.9889 28.81C33.3801 28.4193 34.0103 28.4193 34.4015 28.81L39.424 33.8271C39.8152 34.2178 39.8152 34.8473 39.424 35.2381C39.0329 35.6288 38.4027 35.6288 38.0115 35.2381L32.9889 30.221C32.5978 29.8303 32.5978 29.2008 32.9889 28.81Z" fill="#F4B43E"/>
<path id="Vector_9" d="M10.2989 6.14241C10.69 5.75168 11.3202 5.75168 11.7114 6.14241L16.734 11.1595C17.1251 11.5502 17.1251 12.1797 16.734 12.5704C16.3428 12.9612 15.7126 12.9612 15.3215 12.5704L10.2989 7.55337C9.9077 7.16264 9.9077 6.53314 10.2989 6.14241Z" fill="#F4B43E"/>
</g>
</g>
<defs>
<filter id="filter0_d_204_230" x="0.265747" y="0.115967" width="49.1938" height="49.1485" filterUnits="userSpaceOnUse" color-interpolation-filters="sRGB">
<feFlood flood-opacity="0" result="BackgroundImageFix"/>
<feColorMatrix in="SourceAlpha" type="matrix" values="0 0 0 0 0 0 0 0 0 0 0 0 0 0 0 0 0 0 127 0" result="hardAlpha"/>
<feOffset dy="4"/>
<feGaussianBlur stdDeviation="2"/>
<feComposite in2="hardAlpha" operator="out"/>
<feColorMatrix type="matrix" values="0 0 0 0 0 0 0 0 0 0 0 0 0 0 0 0 0 0 0.25 0"/>
<feBlend mode="normal" in2="BackgroundImageFix" result="effect1_dropShadow_204_230"/>
<feBlend mode="normal" in="SourceGraphic" in2="effect1_dropShadow_204_230" result="shape"/>
</filter>
</defs>
</svg>
