<svg width="50" height="52" viewBox="0 0 50 52" fill="none" xmlns="http://www.w3.org/2000/svg">
<g filter="url(#filter0_d_204_263)">
<path d="M40.3981 17.6595C40.3764 17.6595 40.3546 17.6649 40.3329 17.6649C40.7512 16.6963 40.9875 15.6299 40.9875 14.5093C40.9875 10.1109 37.4182 6.54548 33.015 6.54548C31.4585 6.54548 30.0106 6.99862 28.7855 7.76651C27.1258 3.73713 23.1599 0.898926 18.5285 0.898926C12.403 0.898926 7.43746 5.85899 7.43746 11.9777C7.43746 12.439 7.47549 12.8921 7.52982 13.3398C7.49994 13.3398 7.46734 13.3344 7.43746 13.3344C3.33029 13.3344 0 16.661 0 20.7636C0 24.8663 3.33029 28.1929 7.43746 28.1929H40.4008C43.3128 28.1929 45.676 25.8349 45.676 22.9262C45.676 20.0174 43.3155 17.6568 40.4008 17.6568L40.3981 17.6595Z" fill="#C9C9C9"/>
<path d="M14.6141 41.1737C13.7177 43.0351 11.4821 43.8193 9.61867 42.9238C7.75522 42.0284 6.97019 39.7953 7.8666 37.9339C8.763 36.0725 14.5571 32.6672 14.5571 32.6672C14.5571 32.6672 15.5132 39.315 14.6168 41.1764L14.6141 41.1737Z" fill="#B9D7FF"/>
<path d="M23.9259 41.1737C23.0295 43.0351 20.7939 43.8193 18.9304 42.9238C17.067 42.0284 16.282 39.7953 17.1784 37.9339C18.0748 36.0725 23.8688 32.6672 23.8688 32.6672C23.8688 32.6672 24.825 39.315 23.9286 41.1764L23.9259 41.1737Z" fill="#B9D7FF"/>
<path d="M33.3681 41.1737C32.4717 43.0351 30.2361 43.8193 28.3727 42.9238C26.5093 42.0284 25.7242 39.7953 26.6206 37.9339C27.517 36.0725 33.3111 32.6672 33.3111 32.6672C33.3111 32.6672 34.2673 39.315 33.3708 41.1764L33.3681 41.1737Z" fill="#B9D7FF"/>
</g>
<defs>
<filter id="filter0_d_204_263" x="-4" y="0.898926" width="53.676" height="50.3953" filterUnits="userSpaceOnUse" color-interpolation-filters="sRGB">
<feFlood flood-opacity="0" result="BackgroundImageFix"/>
<feColorMatrix in="SourceAlpha" type="matrix" values="0 0 0 0 0 0 0 0 0 0 0 0 0 0 0 0 0 0 127 0" result="hardAlpha"/>
<feOffset dy="4"/>
<feGaussianBlur stdDeviation="2"/>
<feComposite in2="hardAlpha" operator="out"/>
<feColorMatrix type="matrix" values="0 0 0 0 0 0 0 0 0 0 0 0 0 0 0 0 0 0 0.25 0"/>
<feBlend mode="normal" in2="BackgroundImageFix" result="effect1_dropShadow_204_263"/>
<feBlend mode="normal" in="SourceGraphic" in2="effect1_dropShadow_204_263" result="shape"/>
</filter>
</defs>
</svg>
