<svg width="22" height="22" viewBox="0 0 22 22" fill="none" xmlns="http://www.w3.org/2000/svg">
<g id="Help outline" clip-path="url(#clip0_85_168)">
<path id="Vector" d="M10.0833 16.5H11.9167V14.6667H10.0833V16.5ZM11 1.83333C5.94001 1.83333 1.83334 5.94 1.83334 11C1.83334 16.06 5.94001 20.1667 11 20.1667C16.06 20.1667 20.1667 16.06 20.1667 11C20.1667 5.94 16.06 1.83333 11 1.83333ZM11 18.3333C6.95751 18.3333 3.66668 15.0425 3.66668 11C3.66668 6.9575 6.95751 3.66667 11 3.66667C15.0425 3.66667 18.3333 6.9575 18.3333 11C18.3333 15.0425 15.0425 18.3333 11 18.3333ZM11 5.5C8.97418 5.5 7.33334 7.14083 7.33334 9.16667H9.16668C9.16668 8.15833 9.99168 7.33333 11 7.33333C12.0083 7.33333 12.8333 8.15833 12.8333 9.16667C12.8333 11 10.0833 10.7708 10.0833 13.75H11.9167C11.9167 11.6875 14.6667 11.4583 14.6667 9.16667C14.6667 7.14083 13.0258 5.5 11 5.5Z" fill="#949494"/>
</g>
<defs>
<clipPath id="clip0_85_168">
<rect width="22" height="22" fill="white"/>
</clipPath>
</defs>
</svg>
